<svg width="205" height="154" viewBox="0 0 205 154" fill="none" xmlns="http://www.w3.org/2000/svg">
<path d="M4.90389 89.4582C3.14334 87.5088 1.60374 85.8052 0 84.0268C7.41642 76.4643 15.5563 69.5646 25.9521 65.8653C38.1477 61.5281 49.2528 63.5845 59.4134 71.4642C62.3643 73.7522 65.308 76.0901 68.4763 78.0467C77.5891 83.6669 86.6842 83.1715 95.5475 77.3731C98.3737 75.5234 101.036 73.4279 103.812 71.5034C104.685 70.8975 104.967 70.2097 104.967 69.1512C104.967 55.4909 105.027 41.8341 105.052 28.1738C105.063 22.771 105.024 17.3681 105.002 11.9653C104.978 5.75345 109.732 0.293591 115.423 0.0120449C122.159 -0.319396 127.961 6.2417 126.874 13.2305C124.625 12.9881 122.362 12.7458 120.006 12.4927C119.964 11.9653 119.96 11.559 119.896 11.1634C119.536 8.91817 117.572 7.02218 115.783 7.17543C113.905 7.33937 112.159 9.606 112.159 11.8512C112.155 27.347 112.148 42.8391 112.144 58.3349C112.144 60.9436 112.144 63.5524 112.144 66.4213C123.716 62.1054 134.344 63.866 144.355 71.0365C144.355 65.2345 144.355 59.6499 144.355 53.8551C135.217 53.8551 126.054 53.8551 116.802 53.8551C116.802 51.4138 116.802 49.1828 116.802 46.7131C125.951 46.7131 135.11 46.7131 144.376 46.7131C144.376 41.9303 144.376 37.3828 144.376 32.5859C134.996 32.5859 125.598 32.5859 116.1 32.5859C116.1 30.0626 116.1 27.7853 116.1 25.3441C125.53 25.3441 134.889 25.3441 144.437 25.3441C144.437 21.0496 144.497 16.9119 144.415 12.7814C144.358 9.88398 145.1 7.27879 146.739 4.91594C149.704 0.642849 155.178 -1.13196 159.583 0.749764C164.455 2.8275 167.68 8.58317 166.643 13.5833C164.441 13.3481 162.22 13.1093 159.922 12.8634C159.797 12.2397 159.683 11.6766 159.569 11.1171C159.091 8.80056 157.338 7.04001 155.634 7.16831C153.703 7.31086 151.761 9.53115 151.622 11.7764C151.586 12.368 151.607 12.9632 151.607 13.5583C151.611 33.8083 151.618 54.0618 151.607 74.3117C151.607 74.9639 151.458 75.6197 151.361 76.3966C156.657 80.7445 162.687 83.6206 169.947 83.0218C175.892 82.53 181.309 80.3952 186.006 76.8456C190.671 73.321 194.983 69.3259 199.663 65.3593C201.028 66.571 202.738 68.0928 204.88 69.9959C202.221 72.5048 199.709 74.996 197.068 77.3481C190.61 83.0931 183.518 87.7083 174.887 89.5117C165.649 91.4397 157.235 89.5473 149.622 84.0482C145.827 81.3076 142.184 78.3531 138.335 75.6874C129.65 69.6751 118.866 69.7785 110.191 75.8121C106.057 78.6882 102.105 81.8814 97.7642 84.4046C85.672 91.429 73.7829 90.5808 62.3643 82.6619C59.1995 80.4665 56.2237 78.0003 53.0768 75.78C43.7466 69.1904 34.0386 69.5611 24.1488 74.3866C17.2848 77.7366 11.5648 82.6156 6.19402 87.9471C5.81268 88.3178 5.49906 88.7561 4.90389 89.4582Z" fill="#7AE000"/>
<path d="M11.7893 103.186C19.416 95.8124 27.6236 89.8536 38.2832 88.2713C46.1522 87.1023 53.3797 88.8629 59.8874 93.3926C63.1946 95.6948 66.338 98.2359 69.5918 100.62C79.4673 107.858 89.4319 108.004 99.5783 101.058C103.003 98.7134 106.346 96.2437 109.817 93.9663C115.12 90.4916 120.869 88.3996 127.33 88.3283C134.433 88.2499 140.285 91.1188 145.673 95.4026C148.92 97.9828 152.053 100.813 155.62 102.855C163.322 107.27 171.216 106.29 178.974 102.676C180.047 102.178 181.095 101.622 182.168 101.126C184.477 100.061 186.319 100.207 187.62 101.522C188.957 102.869 189.242 104.947 187.902 107.106C186.316 109.665 184.587 112.188 182.585 114.423C167.124 131.661 148.382 143.861 125.997 149.958C101.67 156.587 78.2663 153.469 56.0419 141.772C38.5968 132.588 24.1025 119.89 12.3773 104.038C12.2027 103.806 12.0459 103.564 11.7893 103.186ZM21.4759 104.049C21.786 104.466 21.982 104.751 22.203 105.014C33.5289 118.504 46.865 129.491 62.7741 137.15C81.3597 146.092 100.801 148.565 120.954 143.846C140.492 139.27 157.106 129.313 171.615 115.631C172.805 114.509 174.12 113.514 175.375 112.463C175.211 112.278 175.043 112.092 174.879 111.903C174.48 111.964 174.074 112.003 173.678 112.092C168.611 113.226 163.553 113.201 158.532 111.868C152.819 110.349 148.211 106.935 143.795 103.19C140.72 100.581 137.662 97.8973 133.756 96.568C127.099 94.3049 120.84 95.5772 115.053 99.1946C110.43 102.085 106.136 105.499 101.471 108.307C90.5973 114.854 79.5101 115.275 68.5333 108.532C65.3615 106.582 62.4783 104.163 59.4953 101.91C56.1702 99.4013 52.8095 96.9172 48.6968 95.8944C38.0586 93.25 29.5445 97.7227 21.4759 104.049Z" fill="#7AE000"/>
</svg>
