<svg width="179" height="186" viewBox="0 0 179 186" fill="none" xmlns="http://www.w3.org/2000/svg">
<path d="M96.3011 119.793C97.6921 120.249 98.9741 120.632 100.226 121.088C101.974 121.722 102.547 122.907 101.888 124.586C99.4262 130.861 96.9456 137.129 94.451 143.393C93.8784 144.833 92.4387 145.543 90.897 145.058C86.6986 143.739 82.514 142.378 78.3456 140.975C76.7251 140.43 76.2058 139.029 76.8619 137.379C78.7606 132.61 80.6246 127.83 82.5789 123.083C83.0287 121.991 83.0403 121.066 82.5557 119.984C78.3943 110.665 74.2816 101.326 70.1573 91.992C68.6295 88.5314 67.0994 85.0708 65.6065 81.597C65.3259 80.9461 65.0176 80.6503 64.1992 80.6744C60.8098 80.7752 57.3996 80.4574 54.0519 81.2332C46.4385 82.9997 40.2115 86.7671 35.8855 92.9826C28.81 103.152 21.8411 113.387 14.9418 123.663C12.9689 126.602 11.149 129.682 9.6931 132.873C7.38869 137.925 8.45975 142.63 12.4658 146.586C16.9471 151.011 21.5792 155.298 26.1532 159.637C28.606 161.965 31.0449 164.305 33.5371 166.593C36.5949 169.403 40.9835 169.386 43.8861 166.602C46.7631 163.847 46.7005 159.67 43.6821 156.801C37.7958 151.208 31.8841 145.641 25.984 140.061C23.61 137.815 23.5312 136.037 25.5018 133.502C31.3671 125.945 37.1954 118.364 43.0283 110.783C44.2222 109.231 45.7778 108.594 47.7623 109.015C49.5381 109.391 50.695 110.757 50.9546 112.729C51.0937 113.779 51.1795 114.833 51.2746 115.888C51.7684 121.266 52.2436 126.644 52.749 132.02C53.3332 138.229 53.9522 144.436 54.5318 150.647C55.0349 156.023 55.4962 161.404 55.9947 166.782C56.4097 171.251 56.8409 175.717 57.2883 180.184C57.4529 181.823 57.5387 183.432 55.99 184.596C54.5735 185.661 52.9762 185.858 51.3093 185.24C49.6402 184.62 48.9748 183.3 48.8171 181.716C48.5552 179.066 48.3303 176.412 48.0892 173.74C46.6472 174.387 45.2933 175.15 43.8351 175.623C37.571 177.652 31.9722 176.552 27.2405 172.114C20.58 165.864 13.938 159.593 7.35159 153.273C3.76978 149.836 1.08516 145.874 0.276066 140.993C-0.44957 136.614 0.262156 132.366 2.3301 128.448C4.33545 124.643 6.5935 120.939 8.98601 117.336C14.6056 108.879 20.3226 100.48 26.1045 92.1213C28.5063 88.6498 30.8849 85.1322 34.2117 82.3225C39.7595 77.6389 46.0792 74.3843 53.4329 73.1C55.2435 72.7822 57.1121 72.6179 58.9529 72.6135C78.8881 72.5806 98.8234 72.6135 118.756 72.5828C128 72.5697 135.954 75.7169 143.064 81.1127C146.523 83.7361 149.115 87.0455 151.477 90.5127C158.996 101.543 166.465 112.602 173.884 123.694C176.056 126.942 177.63 130.477 178.358 134.286C179.513 140.318 177.906 145.736 173.898 150.469C172.022 152.685 169.889 154.715 167.773 156.733C162.475 161.787 157.013 166.69 151.82 171.838C146.368 177.245 138.036 178.014 131.542 174.102C131.292 173.951 131.032 173.811 130.659 173.598C130.408 176.322 130.156 178.924 129.933 181.529C129.761 183.539 128.688 184.968 126.961 185.426C125.053 185.93 122.869 185.312 122.007 183.736C121.527 182.858 121.334 181.7 121.422 180.703C122.109 172.853 122.908 165.011 123.643 157.163C124.299 150.154 124.9 143.138 125.554 136.13C126.205 129.156 126.891 122.186 127.561 115.212C127.649 114.305 127.698 113.393 127.809 112.488C128.023 110.768 129.214 109.376 130.867 109.032C132.708 108.649 134.326 109.047 135.49 110.549C138.821 114.844 142.141 119.144 145.461 123.446C148.167 126.953 150.865 130.462 153.557 133.977C155.122 136.022 154.955 137.971 153.051 139.772C147.154 145.356 141.256 150.941 135.344 156.507C133.084 158.638 132.068 161.068 133.172 164.042C134.927 168.77 141.124 170.243 144.958 166.799C147.562 164.463 150.065 162.028 152.597 159.62C157.224 155.219 161.891 150.857 166.433 146.38C168.728 144.116 170.147 141.379 170.158 138.135C170.168 135.525 169.467 133.048 168.146 130.806C165.939 127.054 163.639 123.341 161.205 119.716C155.708 111.533 150.084 103.421 144.55 95.2598C141.726 91.0934 138.4 87.4224 133.863 84.8253C129.425 82.2852 124.698 80.7007 119.456 80.6963C117.797 80.6941 116.134 80.727 114.474 80.6765C113.749 80.6546 113.422 80.8891 113.141 81.5335C110.211 88.2596 107.239 94.9705 104.278 101.683C101.744 107.428 99.2129 113.17 96.679 118.912C96.57 119.177 96.4541 119.442 96.3011 119.793ZM74.4856 80.7335C79.4329 91.9569 84.3408 103.099 89.3646 114.498C94.4047 103.062 99.3103 91.9328 104.248 80.7335C94.2772 80.7335 84.4475 80.7335 74.4856 80.7335ZM43.427 124.016C40.1559 128.257 37.0957 132.222 34.0865 136.121C37.9349 139.761 41.6837 143.307 45.5854 146.998C44.869 139.345 44.1619 131.832 43.427 124.016ZM135.298 124.008C134.565 131.849 133.86 139.375 133.172 146.755C136.976 143.178 140.762 139.623 144.576 136.038C141.583 132.156 138.546 128.218 135.298 124.008Z" fill="#7AE000"/>
<path d="M123.453 32.4012C123.604 49.9146 107.883 64.7301 88.9567 64.5417C70.6744 64.3597 54.569 49.6779 55.2413 31.0796C55.8464 14.3815 70.941 -0.61814 90.6468 0.0196283C108.588 0.600414 123.72 14.9776 123.453 32.4012ZM89.4157 8.11118C75.1743 8.13748 63.8771 18.7801 63.7936 32.1097C63.7078 45.722 75.376 56.437 89.3091 56.4457C103.625 56.4523 115.01 45.4765 114.931 32.2127C114.852 18.8174 103.534 8.08488 89.4157 8.11118Z" fill="#7AE000"/>
</svg>
