<svg width="205" height="205" viewBox="0 0 205 205" fill="none" xmlns="http://www.w3.org/2000/svg">
<path d="M43.5523 102.31C43.5523 100.555 43.5383 98.803 43.5551 97.0482C43.6169 90.7655 48.0068 86.3458 54.1904 86.3145C55.5939 86.3088 56.9973 86.2264 58.398 86.2832C59.487 86.3259 60.1944 85.8509 60.5958 84.9038C61.0224 83.8942 60.8259 82.9869 60.026 82.182C58.673 80.8226 57.2584 79.5029 56.0514 78.0126C52.8712 74.0849 53.0789 68.2971 56.537 64.6482C59.3776 61.6505 62.3136 58.7495 65.2356 55.8343C68.9126 52.1682 75.565 52.0004 79.7949 56.6591C80.6763 57.6318 81.6475 58.522 82.5401 59.4833C83.2923 60.291 84.2776 60.5015 85.0719 59.944C85.7456 59.4719 86.4304 58.5675 86.5259 57.7796C86.8374 55.2598 86.5596 52.6318 87.0929 50.1774C88.0248 45.8856 92.2351 42.7685 96.569 42.7344C100.451 42.7059 104.336 42.6974 108.218 42.7344C113.812 42.7912 118.23 47.2536 118.35 52.9333C118.384 54.4492 118.398 55.968 118.353 57.4839C118.317 58.7324 118.811 59.6169 119.945 60.0407C121.02 60.4446 121.848 60.072 122.665 59.1989C124.102 57.663 125.553 56.059 127.262 54.8787C131.422 52.009 136.769 52.6972 140.351 56.3377C142.922 58.9486 145.479 61.5794 148.047 64.1931C152.143 68.3626 152.182 74.7533 148.129 78.9824C147.087 80.0689 146.038 81.1525 144.963 82.2048C144.157 82.9926 143.969 83.8714 144.398 84.9124C144.811 85.9135 145.558 86.2946 146.61 86.3031C148.572 86.3174 150.551 86.2519 152.494 86.488C157.605 87.1109 161.265 91.2689 161.369 96.5078C161.448 100.487 161.47 104.471 161.403 108.45C161.307 113.897 156.875 118.336 151.444 118.518C150.043 118.564 148.637 118.558 147.233 118.51C145.976 118.467 144.881 118.692 144.356 120.014C143.837 121.323 144.491 122.218 145.356 123.14C146.922 124.809 148.713 126.388 149.816 128.347C152.005 132.238 151.764 136.325 148.808 139.71C145.732 143.231 142.442 146.627 138.877 149.63C134.965 152.926 129.553 152.36 125.845 148.816C124.691 147.716 123.672 146.447 122.418 145.489C121.772 144.997 120.705 144.764 119.897 144.883C118.934 145.028 118.415 145.918 118.379 146.996C118.3 149.357 118.44 151.763 118.042 154.07C117.267 158.535 113.048 162.025 108.611 162.096C104.636 162.161 100.659 162.172 96.684 162.098C90.9215 161.993 86.5904 157.44 86.582 151.592C86.5792 150.17 86.5511 148.748 86.5989 147.326C86.6354 146.203 86.2087 145.327 85.2263 144.914C84.2327 144.499 83.2699 144.61 82.425 145.509C81.1366 146.877 79.837 148.265 78.3775 149.428C74.2962 152.682 68.9968 152.548 65.1991 148.996C62.1508 146.143 59.1951 143.165 56.3967 140.06C52.801 136.072 52.975 130.125 56.6128 126.129C57.6878 124.949 58.8134 123.817 59.953 122.696C60.6968 121.965 61.0449 121.121 60.6519 120.139C60.2646 119.178 59.6162 118.513 58.4373 118.544C56.8963 118.587 55.3525 118.521 53.8087 118.504C48.237 118.441 43.8554 114.215 43.5888 108.558C43.4905 106.476 43.5719 104.389 43.5719 102.304C43.5635 102.31 43.5579 102.31 43.5523 102.31ZM102.41 51.0391C102.41 51.0533 102.41 51.0704 102.41 51.0846C100.681 51.0846 98.9492 51.0704 97.2202 51.0875C95.4518 51.1045 94.7782 51.7928 94.7585 53.5931C94.7389 55.2512 94.8287 56.915 94.7276 58.5675C94.4806 62.5862 92.4765 65.544 88.9819 67.3131C85.3217 69.1674 81.611 69.0451 78.2624 66.531C76.5867 65.2739 75.1692 63.6613 73.6703 62.1709C72.7552 61.2608 71.6802 61.0561 70.7988 61.9064C67.9891 64.614 65.2552 67.4069 62.569 70.2425C61.7269 71.1299 61.7662 72.2192 62.6897 73.1577C63.7423 74.2271 64.7837 75.3078 65.8391 76.3744C68.7919 79.355 69.6929 82.9443 68.5449 86.9289C67.4137 90.8537 64.8005 93.5016 60.7782 94.2609C58.5552 94.6819 56.231 94.5567 53.949 94.6676C52.5961 94.7331 51.7569 95.4071 51.74 96.6983C51.6951 100.49 51.6951 104.281 51.754 108.072C51.7765 109.514 52.6523 110.236 54.1231 110.253C55.7595 110.27 57.3987 110.231 59.0351 110.276C65.9598 110.472 70.8522 118.072 68.3737 124.627C67.3014 127.469 65.0307 129.232 63.0574 131.277C61.668 132.716 61.6034 133.686 63.0265 135.148C65.4826 137.676 67.9751 140.17 70.4704 142.659C71.5174 143.703 72.5195 143.706 73.6366 142.653C74.7959 141.558 75.8597 140.361 77.0302 139.277C80.3086 136.246 84.0642 135.523 88.1791 137.193C92.0723 138.771 94.2785 141.755 94.6799 145.987C94.854 147.821 94.7332 149.681 94.7838 151.527C94.8259 153.08 95.5164 153.811 97.0293 153.825C100.631 153.856 104.232 153.856 107.833 153.831C109.38 153.819 110.157 153.023 110.191 151.464C110.225 149.948 110.171 148.43 110.205 146.914C110.3 142.588 112.276 139.346 116.094 137.514C120.321 135.486 124.363 135.97 127.897 139.277C129.053 140.358 130.173 141.482 131.327 142.565C132.545 143.708 133.39 143.743 134.549 142.591C137.112 140.042 139.652 137.469 142.17 134.878C143.186 133.831 143.172 132.69 142.181 131.635C141.022 130.401 139.79 129.235 138.661 127.972C135.978 124.974 135.27 121.436 136.494 117.665C137.766 113.754 140.483 111.144 144.558 110.452C146.61 110.103 148.755 110.316 150.854 110.268C152.154 110.239 153.232 109.4 153.246 108.191C153.288 104.355 153.285 100.515 153.198 96.6784C153.167 95.2905 152.384 94.6876 150.992 94.6648C149.544 94.6421 148.092 94.6506 146.641 94.6449C142.156 94.625 138.389 92.0425 136.73 87.8503C135.082 83.6894 136.056 79.3578 139.338 76.1668C140.312 75.2197 141.272 74.2527 142.195 73.2573C143.023 72.3642 143.29 71.218 142.451 70.3221C139.787 67.4752 137.036 64.7107 134.257 61.9775C133.345 61.0788 132.27 61.258 131.313 62.225C130.19 63.3598 129.104 64.5372 127.925 65.6095C124.627 68.6128 120.843 69.3637 116.745 67.6544C112.723 65.9763 110.483 62.8621 110.239 58.411C110.146 56.7586 110.236 55.0948 110.205 53.4367C110.177 51.881 109.416 51.0818 107.881 51.0505C106.059 51.0078 104.235 51.0391 102.41 51.0391Z" fill="#7AE000"/>
<path d="M124.784 190.625C127.035 192.559 129.051 194.294 131.069 196.023C131.672 196.541 132.315 197.01 132.896 197.55C134.636 199.169 134.827 201.686 133.368 203.381C131.852 205.141 129.393 205.406 127.588 203.884C122.424 199.53 117.284 195.139 112.156 190.736C110.404 189.231 110.222 186.626 111.757 184.752C115.451 180.247 119.19 175.782 122.915 171.302C123.454 170.654 123.973 169.98 124.548 169.368C126.148 167.67 128.545 167.616 130.319 169.212C131.925 170.651 132.076 173.074 130.648 174.817C128.812 177.059 126.962 179.283 125.284 181.814C126.847 181.313 128.427 180.861 129.974 180.307C141.623 176.131 151.879 169.712 160.74 160.95C169.102 152.682 175.457 143.074 179.853 132.15C182.505 125.56 184.313 118.709 185.152 111.622C185.402 109.514 186.73 107.893 188.489 107.606C190.53 107.27 192.329 108.16 193.014 110.04C193.309 110.848 193.404 111.821 193.292 112.677C191.869 123.712 188.641 134.201 183.44 143.996C175.536 158.879 164.502 170.81 150.243 179.675C142.585 184.436 134.417 187.906 125.775 190.289C125.562 190.346 125.354 190.432 124.784 190.625Z" fill="#7AE000"/>
<path d="M183.577 80.7858C181.466 72.1141 178.3 64.3298 173.964 57.0318C168.658 48.107 161.981 40.3995 153.858 34.0116C143.203 25.6329 131.262 20.0841 117.972 17.6182C116.147 17.2798 114.62 16.5915 113.935 14.7713C112.801 11.7622 115.232 8.71336 118.426 9.30778C122.047 9.97899 125.66 10.8009 129.193 11.8504C136.893 14.1342 144.118 17.5528 150.916 21.8645C162.551 29.2421 172.111 38.7585 179.555 50.4591C185.034 59.071 188.986 68.3428 191.408 78.2858C191.493 78.6271 191.647 78.9513 191.857 79.5286C193.699 76.2835 195.403 73.2688 197.12 70.2597C198.513 67.8223 200.803 67.1341 203.035 68.4623C204.946 69.5999 205.443 72.2534 204.194 74.4576C201.011 80.0719 197.839 85.6947 194.667 91.3175C193.233 93.8629 191.029 94.5853 188.52 93.1604C182.867 89.9466 177.242 86.6787 171.628 83.3966C169.565 82.1907 168.914 79.7107 170.042 77.771C171.263 75.6777 173.585 75.0549 175.737 76.275C178.255 77.7056 180.759 79.1618 183.577 80.7858Z" fill="#7AE000"/>
<path d="M75.5398 11.5517C72.5336 10.4624 69.5246 9.37029 66.5184 8.28099C64.0006 7.36804 62.8722 5.64736 63.2933 3.35217C63.7452 0.88633 66.2377 -0.615356 68.618 0.243563C74.8156 2.47903 81.0048 4.73724 87.1772 7.04097C90.1384 8.14732 90.9917 10.1012 89.9279 13.1103C87.8368 19.0289 85.7288 24.9389 83.6124 30.8489C82.6777 33.457 80.7802 34.5633 78.414 33.9319C76.1825 33.3375 74.8829 30.9286 75.6548 28.7216C76.5081 26.2728 77.4232 23.8468 78.2989 21.4065C78.4786 20.9031 78.6049 20.377 78.8659 19.4754C76.0226 20.5192 73.5104 21.3354 71.074 22.3536C61.5726 26.3183 53.0116 31.8046 45.534 38.9575C38.4185 45.7634 32.6055 53.5676 28.179 62.4384C24.8556 69.0993 22.4248 76.0588 20.9456 83.3624C20.6172 84.9836 20.3702 86.6189 20.0586 88.2429C19.5786 90.7457 17.5942 92.2218 15.228 91.8663C13.0526 91.5392 11.6407 89.3777 12.0141 86.8436C14.094 72.6686 19.1857 59.7024 27.2078 47.8993C33.4952 38.6475 41.217 30.8461 50.2777 24.4156C57.57 19.2422 65.4827 15.2775 73.9426 12.4476C74.4703 12.2713 74.9896 12.075 75.5145 11.8873C75.5201 11.7764 75.5285 11.6655 75.5398 11.5517Z" fill="#7AE000"/>
<path d="M13.0189 121.254C11.2786 123.686 9.58044 126.041 7.90472 128.413C6.33566 130.631 4.28382 131.288 2.21795 130.202C0.0594414 129.067 -0.698421 126.305 0.73029 124.278C4.67959 118.675 8.66258 113.097 12.7073 107.566C14.223 105.492 16.6763 105.336 18.9218 106.997C22.2002 109.423 25.4562 111.874 28.7291 114.306C30.635 115.723 32.5773 117.091 34.4552 118.544C36.1505 119.858 36.594 121.883 35.693 123.706C34.8144 125.484 32.8272 126.359 30.8258 125.774C30.3066 125.623 29.8154 125.296 29.3663 124.972C26.7951 123.109 24.2409 121.22 21.3048 119.064C21.4817 120.054 21.5462 120.668 21.7006 121.257C26.8597 141.115 37.6298 157.133 53.994 169.209C63.0406 175.884 73.1117 180.412 84.0502 182.909C86.1919 183.398 87.5981 184.752 87.7329 186.447C87.8901 188.458 87.0339 190.258 85.3582 190.801C84.3814 191.12 83.1969 191.214 82.2061 190.977C74.1699 189.078 66.4706 186.239 59.2036 182.243C50.3618 177.383 42.4492 171.288 35.6088 163.805C27.466 154.897 21.1112 144.838 16.9682 133.419C15.5339 129.482 14.369 125.444 13.0189 121.254Z" fill="#7AE000"/>
<path d="M79.5366 102.151C79.7556 89.574 89.6892 78.9115 103.131 79.2186C115.145 79.4945 125.446 89.4375 125.418 102.586C125.393 115.228 115.049 125.677 102.559 125.643C89.6499 125.609 79.5282 115.282 79.5366 102.151ZM102.374 117.361C110.727 117.313 117.228 110.697 117.225 102.361C117.222 94.446 110.718 87.3385 102.191 87.5234C94.11 87.6997 87.7215 94.2753 87.7356 102.68C87.7496 110.652 94.4806 117.404 102.374 117.361Z" fill="#7AE000"/>
</svg>
