<svg width="81" height="81" viewBox="0 0 81 81" fill="none" xmlns="http://www.w3.org/2000/svg">
<path d="M74.7167 61.2022C71.9302 58.3946 65.1815 54.2973 61.9072 52.6461C57.6432 50.4984 57.2922 50.3229 53.9407 52.8128C51.7052 54.4746 50.2189 55.9591 47.6026 55.4011C44.9863 54.8431 39.301 51.6968 34.3228 46.7344C29.3446 41.7721 26.0159 35.9218 25.4561 33.3143C24.8964 30.7067 26.4054 29.238 28.0514 26.9972C30.3711 23.8387 30.1956 23.3123 28.2128 19.0483C26.6669 15.7318 22.4503 9.04631 19.6322 6.27384C16.6175 3.29605 16.6175 3.82247 14.675 4.62965C13.0936 5.29503 11.5765 6.10383 10.1426 7.04592C7.335 8.9112 5.77679 10.4606 4.6871 12.7892C3.59742 15.1177 3.10785 20.5767 8.73527 30.7997C14.3627 41.0228 18.3108 46.2501 26.4826 54.3991C34.6544 62.5481 40.9381 66.9297 50.1241 72.0816C61.4878 78.446 65.8465 77.2054 68.1821 76.1174C70.5176 75.0295 72.0741 73.4853 73.9429 70.6778C74.8874 69.2463 75.698 67.7308 76.3644 66.1506C77.1733 64.2151 77.6998 64.2151 74.7167 61.2022Z" stroke="#7AE000" stroke-width="8" stroke-miterlimit="10"/>
</svg>
