<svg width="155" height="205" viewBox="0 0 155 205" fill="none" xmlns="http://www.w3.org/2000/svg">
<path d="M37.3578 204.878C36.1908 204.273 34.9298 203.784 33.8737 203.041C30.8334 200.9 29.5362 197.908 29.2418 194.406C28.7212 188.223 27.9211 182.07 25.5955 176.211C25.0088 174.731 24.0914 173.357 23.223 171.989C22.7003 171.164 21.8447 170.759 20.778 170.573C9.78589 168.656 1.1066 159.873 0.26811 149.436C-0.1458 144.29 0.0440864 139.098 0.0398193 133.927C0.027018 108.857 0.0376858 83.7882 0.0376858 58.717C0.0376858 47.4743 7.33231 38.2446 18.798 35.134C20.6713 34.6252 21.8725 33.5716 22.8496 32.1395C25.1027 28.8426 26.4383 25.1792 27.2981 21.3996C28.1921 17.4677 28.8385 13.4798 29.4359 9.4959C30.236 4.14996 34.9576 0.0398546 40.7096 0.0278368C59.1649 -0.00621377 77.6201 -0.0122227 96.0732 0.0278368C102.25 0.0418576 107.076 4.60864 107.569 10.4193C108.113 16.8208 109.506 23.07 112.233 28.9989C112.736 30.0945 113.376 31.144 114.033 32.1676C115.038 33.7319 116.466 34.6793 118.384 35.2742C128.9 38.539 134.921 45.4272 136.491 55.6965C136.752 57.401 136.632 59.1616 136.634 60.8982C136.641 89.3725 136.626 117.849 136.649 146.323C136.656 153.9 133.758 160.228 127.684 165.233C124.586 167.785 120.989 169.499 116.978 170.349C115.533 170.655 114.543 171.35 113.752 172.422C111.776 175.096 110.763 178.15 109.903 181.249C108.638 185.806 107.993 190.457 107.511 195.14C107.057 199.544 104.695 202.741 100.278 204.495C99.9926 204.61 99.7173 204.752 99.4378 204.88C78.7488 204.878 58.0533 204.878 37.3578 204.878ZM127.475 102.61C127.475 98.2376 127.477 93.8652 127.475 89.4927C127.466 78.8449 127.586 68.195 127.404 57.5512C127.264 49.3771 119.924 42.8414 111.219 42.8374C82.6681 42.8214 54.119 42.8194 25.5678 42.8374C16.5173 42.8434 9.2013 49.7557 9.19703 58.2743C9.18637 87.8482 9.19063 117.42 9.20557 146.994C9.20557 147.955 9.30371 148.933 9.51067 149.874C11.1706 157.406 17.7206 162.421 25.9092 162.423C54.3537 162.431 82.7961 162.437 111.241 162.397C112.811 162.395 114.43 162.118 115.943 161.698C122.48 159.879 127.535 153.992 127.496 146.676C127.417 131.982 127.473 117.296 127.475 102.61ZM104.573 34.1866C104.541 34.0003 104.546 33.8961 104.505 33.814C100.88 26.5773 99.2352 18.8718 98.3967 10.9801C98.2281 9.39575 97.3299 8.61459 95.6038 8.61459C77.507 8.61459 59.4124 8.61459 41.3156 8.61459C39.5255 8.61459 38.5803 9.4338 38.4289 11.1283C37.9125 16.8909 36.754 22.5353 34.8061 28.0214C34.0721 30.0925 33.1611 32.1075 32.3141 34.1886C56.372 34.1866 80.4279 34.1866 104.573 34.1866ZM103.897 171.078C80.3745 171.078 56.8798 171.078 33.3019 171.078C33.6092 171.799 33.8972 172.438 34.1532 173.087C36.7988 179.807 37.7675 186.831 38.4033 193.91C38.5867 195.951 39.2588 196.62 41.4542 196.62C48.2091 196.62 54.9618 196.62 61.7166 196.62C73.0564 196.62 84.3963 196.62 95.734 196.618C97.2936 196.618 98.1918 195.969 98.3711 194.697C98.4692 194.004 98.5183 193.303 98.5908 192.608C99.1647 187.064 100.116 181.585 101.926 176.266C102.514 174.533 103.225 172.838 103.897 171.078Z" fill="#7AE000"/>
<path d="M145.736 85.5106C145.736 81.3044 145.717 77.0981 145.744 72.8939C145.757 70.8148 147.285 69.1664 149.485 68.7437C151.411 68.3752 153.57 69.3987 154.4 71.1553C154.667 71.7202 154.861 72.3711 154.863 72.984C154.893 81.3625 154.906 89.7409 154.866 98.1193C154.855 100.271 153.125 102.061 151.036 102.316C148.603 102.61 146.519 101.376 145.892 99.213C145.744 98.7102 145.74 98.1594 145.738 97.6306C145.725 93.5926 145.732 89.5526 145.732 85.5146C145.732 85.5106 145.734 85.5106 145.736 85.5106Z" fill="#7AE000"/>
<path d="M49.1521 95.5216C46.9951 105.056 44.8274 114.588 42.6874 124.126C42.0303 127.054 40.4664 128.308 37.3087 128.31C32.5786 128.312 27.8507 128.326 23.1206 128.308C19.6898 128.296 17.4368 125.594 18.399 122.694C18.9943 120.897 20.6585 119.742 22.8432 119.72C26.2206 119.685 29.6002 119.709 32.9776 119.709C33.4 119.709 33.8225 119.709 34.3111 119.709C34.9831 116.757 35.6445 113.869 36.2995 110.979C39.1393 98.4499 41.9727 85.9193 44.8252 73.3947C45.3223 71.2135 47.1017 69.8775 49.3484 69.8875C51.5331 69.8975 53.3104 71.2575 53.784 73.3707C56.2803 84.5072 58.7595 95.6458 61.2429 106.784C62.7642 113.614 64.2811 120.445 66.0285 127.303C66.3571 125.899 66.692 124.495 67.0163 123.09C68.4373 116.911 69.8433 110.73 71.277 104.555C71.7379 102.576 73.2164 101.308 75.1772 101.11C77.3235 100.894 79.0816 101.807 79.9883 103.698C82.3886 108.707 84.7696 113.727 87.1251 118.756C87.4515 119.453 87.8291 119.738 88.6932 119.734C96.7303 119.695 104.765 119.701 112.802 119.72C115.258 119.726 116.931 120.813 117.554 122.712C118.505 125.61 116.254 128.296 112.807 128.308C106.833 128.33 100.859 128.314 94.8848 128.314C91.6482 128.314 88.4137 128.3 85.1771 128.316C82.8324 128.328 81.181 127.399 80.2465 125.342C79.344 123.357 78.3754 121.396 77.3086 119.157C76.8989 120.883 76.5384 122.345 76.2055 123.812C74.2683 132.302 72.3395 140.797 70.398 149.287C69.903 151.453 68.1364 152.843 65.9069 152.865C63.6474 152.887 61.8403 151.509 61.3325 149.265C60.0119 143.441 58.7317 137.608 57.4367 131.777C54.9852 120.735 52.5338 109.693 50.0802 98.6522C49.8497 97.6187 49.6087 96.5851 49.3718 95.5516C49.295 95.5396 49.2225 95.5316 49.1521 95.5216Z" fill="#7AE000"/>
<path d="M92.1069 62.4044C94.9488 60.5797 98.083 59.6823 101.544 59.8726C109.312 60.2972 116.668 66.5125 116.63 74.5204C116.615 77.9535 115.271 80.98 112.898 83.5578C108.158 88.7094 103.374 93.825 98.5737 98.9266C97.6115 99.9481 96.5426 100.894 95.4374 101.779C93.1865 103.584 90.3404 103.652 88.2367 101.677C85.2241 98.8505 82.3737 95.8661 79.5616 92.8616C76.771 89.8792 74.183 86.7305 71.3901 83.7501C63.9376 75.7902 67.8804 65.549 76.4381 61.491C81.804 58.9472 87.0547 59.2998 92.1069 62.4044ZM91.8765 93.104C93.1759 91.756 94.409 90.5181 95.591 89.2402C98.9727 85.5888 102.339 81.9234 105.702 78.2559C106.846 77.0081 107.71 75.616 107.43 73.9014C106.978 71.1253 105.073 69.4769 102.335 68.6897C99.6725 67.9246 97.5518 68.872 95.8535 70.8389C93.7199 73.3086 90.4214 73.4107 88.386 70.931C85.2881 67.1534 80.7607 68.1088 78.1514 70.933C76.1416 73.1083 76.0733 75.5018 78.0042 77.7331C79.8646 79.8823 81.7485 82.0155 83.6581 84.1246C86.3485 87.099 89.073 90.0454 91.8765 93.104Z" fill="#7AE000"/>
</svg>
